<svg width="146" height="56" viewBox="0 0 146 56" fill="none" xmlns="http://www.w3.org/2000/svg">
<g clip-path="url(#clip0_9_680)">
<path d="M35.0226 0C29.3756 0 23.96 2.24325 19.967 6.23626L6.93548 19.2678C2.94247 23.2608 0.699219 28.6764 0.699219 34.3234C0.699219 46.0827 10.232 55.6154 21.9912 55.6154C27.6382 55.6154 33.0538 53.372 37.0468 49.379L46.0608 40.3651C46.0608 40.3649 46.061 40.3653 46.0608 40.3651L72.3244 14.1015C74.2315 12.1944 76.818 11.1231 79.5149 11.1231C84.0302 11.1231 87.8582 14.0659 89.1853 18.1382L97.4741 9.84941C93.6928 3.92708 87.0625 0 79.5149 0C73.8679 0 68.4523 2.24325 64.4593 6.23626L29.1817 41.5139C27.2747 43.421 24.6882 44.4923 21.9912 44.4923C16.375 44.4923 11.8223 39.9396 11.8223 34.3234C11.8223 31.6264 12.8937 29.0399 14.8007 27.1329L27.8321 14.1015C29.7392 12.1944 32.3257 11.1231 35.0226 11.1231C39.538 11.1231 43.3659 14.066 44.693 18.1384L52.9819 9.84961C49.2007 3.92719 42.5704 0 35.0226 0Z" fill="white"/>
<path d="M73.6821 41.5139C71.7751 43.421 69.1886 44.4923 66.4916 44.4923C61.9769 44.4923 58.1493 41.5503 56.8217 37.4787L48.5332 45.7672C52.3147 51.6888 58.9446 55.6154 66.4916 55.6154C72.1386 55.6154 77.5542 53.372 81.5472 49.379L116.825 14.1015C118.732 12.1944 121.318 11.1231 124.015 11.1231C129.632 11.1231 134.184 15.6758 134.184 21.292C134.184 23.989 133.113 26.5754 131.206 28.4825L118.174 41.5139C116.267 43.421 113.681 44.4923 110.984 44.4923C106.469 44.4923 102.641 41.5497 101.314 37.4777L93.0252 45.7665C96.8064 51.6886 103.437 55.6154 110.984 55.6154C116.631 55.6154 122.047 53.372 126.04 49.379L139.071 36.3476C143.064 32.3546 145.307 26.939 145.307 21.292C145.307 9.53274 135.775 0 124.015 0C118.368 0 112.953 2.24325 108.96 6.23626L73.6821 41.5139Z" fill="white"/>
</g>
<defs>
<clipPath id="clip0_9_680">
<rect width="144.6" height="55.6154" fill="white" transform="translate(0.699219)"/>
</clipPath>
</defs>
</svg>
